<?xml version="1.0" standalone="no"?>
<!DOCTYPE svg PUBLIC "-//W3C//DTD SVG 20010904//EN"
 "http://www.w3.org/TR/2001/REC-SVG-20010904/DTD/svg10.dtd">
<svg version="1.0" xmlns="http://www.w3.org/2000/svg"
 width="1107.000000pt" height="1107.000000pt" viewBox="0 0 1107.000000 1107.000000"
 preserveAspectRatio="xMidYMid meet">
<metadata>
Created by potrace 1.11, written by Peter Selinger 2001-2013
</metadata>
<g transform="translate(0.000000,1107.000000) scale(0.100000,-0.100000)"
fill="#000000" stroke="none">
<path d="M5255 10911 c-227 -133 -499 -290 -1335 -773 -52 -30 -358 -207 -680
-392 -322 -186 -625 -362 -675 -391 -49 -29 -268 -155 -485 -280 -823 -475
-920 -532 -1125 -650 l-210 -122 0 -2768 0 -2768 250 -145 c397 -229 2100
-1213 2960 -1710 215 -124 428 -247 475 -275 47 -27 104 -61 127 -74 23 -13
183 -105 355 -204 172 -100 332 -192 356 -206 23 -13 92 -53 152 -88 l109 -63
88 50 c151 86 359 207 1408 813 193 111 436 252 540 312 240 138 1819 1051
2350 1358 l400 231 0 2769 0 2769 -440 254 c-242 140 -669 387 -950 550 -280
162 -526 304 -545 315 -41 23 -840 484 -1620 935 -712 412 -858 496 -900 520
-19 10 -102 58 -183 106 -82 47 -149 86 -150 85 -1 -1 -123 -72 -272 -158z
m1740 -736 c798 -461 1621 -937 1830 -1058 209 -121 394 -227 410 -237 17 -9
56 -32 88 -49 126 -72 44 -35 -185 82 -134 68 -382 195 -553 282 -170 87 -400
204 -510 260 -110 56 -339 173 -510 260 -170 87 -377 192 -460 235 -82 43
-325 167 -540 276 -214 109 -516 262 -670 341 -154 78 -353 180 -442 225 -101
52 -159 86 -153 92 20 20 225 135 235 132 6 -2 663 -381 1460 -841z m-1030
310 c182 -92 416 -211 520 -265 105 -54 325 -166 490 -250 165 -84 386 -197
490 -250 105 -54 334 -171 510 -260 176 -90 392 -200 480 -245 88 -45 260
-133 383 -194 122 -62 222 -114 222 -117 0 -6 272 -127 -2470 1096 -360 160
-859 382 -1107 493 -249 111 -453 204 -453 207 0 3 50 37 112 77 l112 72 191
-98 c104 -54 339 -174 520 -266z m910 -657 c149 -66 288 -128 310 -138 121
-54 1283 -572 1408 -627 81 -36 146 -67 144 -70 -3 -2 -20 3 -38 11 -19 9
-405 157 -859 331 -454 174 -888 340 -965 370 -115 45 -1972 758 -2069 795
l-29 11 107 78 107 78 807 -359 c444 -198 929 -414 1077 -480z m-2249 665 c-7
-7 -142 -95 -386 -253 -52 -34 -849 -551 -1770 -1150 -921 -600 -1678 -1090
-1682 -1090 -4 0 -7 63 -6 139 l1 139 611 353 c336 194 647 373 691 399 44 26
618 358 1276 738 658 380 1211 700 1230 711 35 22 48 26 35 14z m834 -288
c382 -147 722 -278 755 -290 33 -12 236 -90 450 -173 215 -82 604 -232 865
-332 261 -101 556 -214 655 -252 99 -39 199 -77 223 -85 24 -8 41 -17 39 -19
-1 -2 -79 21 -173 52 -309 101 -1175 382 -1479 481 -93 30 -181 58 -195 63
-14 5 -212 69 -440 144 -550 178 -1214 394 -1428 464 -94 31 -171 60 -170 64
6 15 183 157 193 154 6 -2 323 -124 705 -271z m-1080 71 c0 -2 -80 -61 -177
-131 -98 -71 -216 -157 -263 -191 -394 -289 -3126 -2274 -3130 -2274 -3 0 -6
37 -8 83 -1 45 -5 105 -7 134 l-4 52 927 602 c510 332 986 641 1057 688 108
70 622 404 1030 669 115 74 289 188 455 296 119 78 120 78 120 72z m504 -110
c193 -63 441 -144 551 -179 110 -36 499 -163 865 -282 366 -119 755 -246 865
-281 110 -36 304 -99 430 -140 127 -41 284 -93 350 -114 126 -41 214 -73 180
-66 -11 2 -180 46 -375 99 -195 52 -643 173 -995 267 -352 94 -815 219 -1030
276 -214 58 -424 114 -465 125 -41 11 -244 65 -450 121 -206 55 -393 105 -415
111 -22 5 -42 12 -45 14 -6 6 161 162 174 163 5 0 167 -51 360 -114z m-704
-90 c0 -4 -379 -313 -1170 -953 -480 -389 -1524 -1235 -1934 -1567 -125 -103
-230 -186 -233 -186 -2 0 -2 3 0 8 3 4 1 34 -3 67 -5 33 -11 89 -14 125 l-6
65 1141 830 c628 457 1162 845 1188 863 133 94 928 673 981 715 47 38 50 40
50 33z m364 -55 c122 -33 417 -112 656 -176 239 -63 458 -122 485 -130 28 -8
151 -42 275 -75 1883 -504 1937 -519 1925 -519 -5 -1 -158 31 -340 70 -760
162 -1101 235 -1595 339 -184 39 -364 77 -400 85 -36 8 -236 51 -445 95 -209
44 -420 89 -470 100 -49 11 -178 38 -285 61 -107 22 -197 42 -199 44 -4 5 158
165 166 165 4 0 106 -27 227 -59z m-534 -145 c0 -2 -8 -10 -17 -17 -16 -13
-17 -12 -4 4 13 16 21 21 21 13z m805 -147 c363 -77 788 -167 945 -200 157
-34 335 -71 395 -84 136 -30 326 -70 605 -129 118 -25 321 -68 450 -96 129
-28 261 -56 293 -62 32 -6 56 -12 54 -15 -5 -4 -430 60 -612 92 -44 8 -102 17
-130 20 -27 4 -57 8 -65 10 -8 3 -76 14 -150 25 -74 11 -146 23 -160 25 -19 3
-651 104 -885 140 -22 4 -137 22 -255 41 -295 47 -454 72 -595 94 -66 10 -133
21 -150 24 -16 2 -50 8 -75 11 -25 4 -52 9 -61 10 -8 2 -107 17 -220 35 -241
37 -235 35 -217 53 7 8 41 46 76 84 42 48 68 70 80 67 9 -2 314 -67 677 -145z
m-885 78 c-55 -51 -217 -199 -247 -224 -12 -10 -58 -52 -103 -93 -45 -41 -90
-81 -99 -90 -22 -19 -180 -161 -195 -175 -6 -6 -195 -177 -421 -379 -225 -203
-450 -406 -499 -450 -49 -45 -94 -85 -100 -91 -6 -5 -54 -48 -106 -95 -113
-101 -107 -96 -156 -140 -21 -20 -86 -78 -144 -130 -58 -52 -107 -97 -110
-100 -3 -3 -45 -41 -95 -85 -49 -44 -110 -99 -135 -121 -197 -182 -615 -553
-618 -550 -2 2 -12 57 -22 122 -18 112 -18 120 -2 135 9 9 233 191 497 405
466 377 599 484 850 688 66 53 188 152 270 219 83 66 245 198 360 291 116 94
318 258 450 365 295 238 273 220 485 395 96 79 177 145 180 145 3 0 -15 -18
-40 -42z m235 -172 c88 -14 214 -35 280 -45 66 -11 138 -22 160 -25 22 -4 78
-13 125 -20 70 -12 252 -41 505 -80 22 -4 135 -22 250 -40 116 -18 228 -36
250 -39 22 -4 137 -22 255 -41 118 -19 332 -53 475 -75 143 -23 271 -43 285
-45 101 -16 282 -45 315 -50 166 -23 317 -56 190 -41 -27 3 -75 8 -105 11 -30
3 -66 8 -80 10 -14 2 -56 7 -95 10 -38 3 -86 7 -105 10 -36 5 -91 10 -195 20
-61 6 -113 12 -175 20 -19 2 -60 7 -90 9 -30 3 -143 15 -250 26 -107 11 -238
25 -290 30 -108 11 -175 18 -240 25 -83 10 -125 14 -230 25 -155 16 -201 20
-240 25 -19 3 -147 16 -285 30 -137 14 -266 27 -285 30 -19 2 -62 7 -95 10
-33 3 -78 8 -100 10 -22 3 -107 11 -190 20 -82 9 -163 17 -180 20 -16 2 -66 7
-110 11 -44 4 -85 9 -91 13 -8 4 12 37 54 89 61 77 68 82 96 77 17 -3 103 -17
191 -30z m-1770 -1415 c-781 -781 -1423 -1416 -1426 -1412 -4 4 -17 56 -29
117 l-22 109 49 46 c56 51 205 186 237 213 12 10 39 35 61 55 22 20 83 75 135
122 52 47 100 90 106 95 39 36 180 163 198 178 18 16 166 151 200 182 6 6 99
89 206 185 220 198 203 182 261 235 24 22 107 96 184 165 77 69 163 146 190
172 28 25 61 56 75 68 14 12 43 38 65 58 22 20 83 75 135 122 105 94 175 157
200 180 9 8 56 51 106 95 49 44 91 82 94 85 3 3 25 23 50 45 64 57 236 212
290 262 25 24 47 43 50 43 3 0 -634 -639 -1415 -1420z m1620 1215 c83 -9 168
-18 190 -20 53 -6 306 -34 370 -40 103 -10 351 -36 390 -40 22 -3 87 -10 145
-15 58 -6 119 -13 135 -15 17 -3 57 -7 90 -10 33 -3 78 -8 100 -10 53 -6 217
-23 285 -29 30 -3 116 -12 190 -21 74 -8 203 -21 285 -30 83 -9 166 -18 185
-20 19 -2 64 -7 100 -10 36 -3 81 -8 100 -10 36 -4 172 -19 290 -31 203 -21
124 -26 -140 -9 -36 2 -117 7 -180 10 -63 3 -153 8 -200 10 -47 3 -132 7 -190
10 -58 3 -143 7 -190 10 -170 10 -267 15 -375 20 -119 5 -247 12 -390 20 -49
3 -124 7 -165 10 -41 2 -138 7 -215 10 -77 3 -160 8 -185 10 -25 2 -115 7
-200 10 -85 4 -166 8 -180 10 -14 2 -97 7 -185 10 -88 4 -176 8 -195 10 -19 2
-74 5 -122 6 -52 1 -88 6 -88 11 0 6 26 46 58 88 57 78 57 78 97 74 22 -2 108
-11 190 -19z m-601 -282 c-103 -115 -222 -246 -264 -293 -74 -82 -388 -431
-534 -594 -39 -43 -76 -84 -81 -90 -6 -6 -75 -83 -154 -171 -79 -88 -179 -198
-221 -245 -42 -47 -164 -182 -270 -300 -106 -118 -209 -233 -229 -255 -20 -22
-77 -85 -126 -140 -50 -55 -94 -105 -100 -111 -5 -6 -41 -46 -80 -89 -38 -43
-75 -83 -80 -89 -11 -12 -169 -188 -201 -224 -12 -13 -24 -20 -27 -16 -10 16
-58 205 -55 214 3 10 2598 2610 2605 2610 2 0 -80 -93 -183 -207z m431 82 c83
-3 173 -7 200 -9 28 -2 113 -7 190 -10 77 -4 169 -9 205 -11 36 -2 119 -7 185
-10 66 -3 149 -8 185 -10 36 -2 121 -7 190 -10 69 -3 159 -8 200 -10 41 -3
127 -7 190 -11 63 -3 144 -7 180 -9 36 -2 128 -6 205 -10 77 -3 160 -8 185
-10 25 -2 110 -7 190 -11 80 -3 161 -7 180 -9 51 -4 371 -19 398 -18 12 1 22
-2 22 -6 0 -4 -725 -7 -1610 -8 l-1610 0 13 21 c8 12 33 51 56 88 37 58 45 66
69 63 15 -2 95 -6 177 -10z m-386 -103 c-19 -21 -48 -56 -65 -77 -31 -40 -687
-851 -1044 -1291 -102 -125 -302 -373 -445 -550 -143 -177 -275 -339 -293
-361 -84 -104 -321 -398 -390 -485 -42 -53 -79 -97 -82 -97 -3 0 -20 47 -38
104 l-33 106 20 26 c12 14 42 49 68 77 27 29 82 90 123 136 41 47 102 114 134
150 33 36 77 85 100 110 22 25 60 68 85 95 25 28 80 88 121 135 41 46 82 91
90 100 8 9 51 56 95 105 44 50 102 115 130 145 27 30 84 93 125 139 41 46 80
89 85 95 11 11 278 308 325 360 14 15 34 38 45 50 11 12 54 60 95 106 41 46
80 88 85 94 6 6 48 54 95 106 47 52 87 97 90 100 3 3 43 48 90 100 47 52 87
97 90 100 3 3 43 48 90 100 47 52 87 97 90 100 3 3 36 40 74 83 38 42 71 77
73 77 3 0 -10 -17 -28 -38z m4154 1 c-7 -2 -21 -2 -30 0 -10 3 -4 5 12 5 17 0
24 -2 18 -5z m-246 -9 c-3 -3 -12 -4 -19 -1 -8 3 -5 6 6 6 11 1 17 -2 13 -5z
m810 -30 c-3 -3 -12 -4 -19 -1 -8 3 -5 6 6 6 11 1 17 -2 13 -5z m-1374 -21
c-7 -2 -21 -2 -30 0 -10 3 -4 5 12 5 17 0 24 -2 18 -5z m44 1 c-3 -3 -12 -4
-19 -1 -8 3 -5 6 6 6 11 1 17 -2 13 -5z m703 -51 c9 -9 74 -121 505 -868 506
-878 562 -975 1039 -1802 258 -446 468 -814 468 -818 0 -7 -113 -205 -1279
-2225 -113 -195 -266 -461 -341 -590 -330 -573 -384 -666 -396 -675 -17 -13
-4022 -13 -4036 1 -7 7 -832 1433 -995 1719 -12 22 -55 96 -95 165 -40 69
-201 348 -358 620 -157 272 -348 603 -425 735 -121 209 -138 243 -130 265 5
14 154 275 330 580 309 536 1099 1904 1335 2315 326 566 335 580 357 585 38 9
4013 2 4021 -7z m246 3 c2 -1 162 -315 364 -711 270 -532 437 -859 550 -1080
59 -115 196 -385 305 -600 109 -214 202 -396 208 -403 5 -7 8 -15 5 -17 -3 -3
-43 61 -89 142 -46 81 -96 167 -110 192 -14 25 -67 116 -116 201 -49 85 -142
245 -205 355 -64 110 -326 565 -583 1010 -257 446 -478 830 -492 855 -14 25
-30 51 -36 58 -9 11 8 12 94 7 57 -4 105 -8 105 -9z m234 -16 c22 -6 86 -144
568 -1226 298 -670 579 -1302 624 -1404 44 -102 100 -227 125 -279 87 -186 34
-94 -121 212 -88 172 -191 375 -231 452 -40 77 -161 316 -270 530 -109 215
-237 467 -285 560 -48 94 -183 359 -300 590 -117 231 -230 453 -251 493 -22
40 -39 77 -39 83 0 10 130 2 180 -11z m204 -21 c76 -12 79 -13 93 -46 15 -38
532 -1385 929 -2423 140 -366 261 -680 270 -699 8 -18 13 -35 11 -37 -2 -2
-12 15 -22 38 -10 24 -29 68 -43 98 -56 127 -595 1338 -607 1365 -8 17 -35 77
-60 135 -26 58 -55 123 -65 145 -49 108 -633 1422 -638 1434 -4 10 2 12 24 8
16 -4 64 -12 108 -18z m347 -67 c7 -7 15 -31 209 -632 67 -206 152 -469 190
-585 38 -115 119 -365 180 -555 61 -190 120 -370 130 -400 10 -30 45 -138 78
-240 33 -102 115 -353 182 -558 67 -206 120 -376 117 -378 -2 -2 -13 22 -24
53 -12 32 -305 798 -652 1701 -347 904 -631 1645 -631 1646 0 6 215 -45 221
-52z m166 -28 c54 -14 101 -29 105 -32 4 -4 100 -353 213 -777 250 -932 619
-2312 646 -2415 11 -41 36 -133 55 -203 20 -71 34 -131 31 -133 -2 -2 -36 99
-77 224 -40 125 -90 279 -110 342 -99 302 -298 914 -470 1445 -34 105 -122
375 -195 600 -73 226 -172 532 -220 680 -49 149 -90 276 -93 283 -6 17 2 16
115 -14z m-5470 -66 c-30 -40 -229 -314 -442 -608 -367 -506 -893 -1231 -1085
-1495 -48 -66 -181 -248 -294 -405 -114 -157 -210 -286 -214 -288 -4 -1 -23
39 -42 90 -19 51 -36 95 -38 99 -2 4 332 424 456 574 10 11 100 123 202 249
102 126 228 281 280 346 52 64 167 206 255 315 88 109 243 300 343 424 101
124 198 244 215 265 18 22 82 101 142 175 61 75 146 180 189 234 42 53 80 97
82 97 2 0 -20 -33 -49 -72z m5818 62 c3 -6 -1 -7 -9 -4 -18 7 -21 14 -7 14 6
0 13 -4 16 -10z m-45 -78 c80 -27 85 -30 92 -63 7 -32 88 -411 348 -1639 61
-289 154 -725 206 -970 52 -245 96 -454 99 -465 2 -11 31 -147 64 -303 34
-156 61 -288 60 -295 -1 -19 -7 1 -99 348 -35 133 -410 1530 -434 1620 -19 71
-182 678 -316 1180 -70 262 -162 603 -166 617 -6 19 -1 18 146 -30z m251 -82
c57 -22 106 -43 110 -48 7 -6 18 -70 43 -232 3 -19 15 -93 26 -165 12 -71 23
-141 25 -155 19 -124 87 -550 90 -570 2 -14 15 -97 29 -185 14 -88 43 -272 65
-410 22 -137 42 -266 45 -285 3 -19 19 -120 36 -225 17 -104 37 -235 45 -290
9 -55 18 -111 20 -125 2 -14 11 -70 20 -125 9 -55 20 -127 25 -160 6 -33 12
-73 14 -90 3 -16 12 -73 20 -125 41 -251 85 -530 91 -570 3 -25 13 -85 22
-133 26 -149 9 -105 -26 66 -19 89 -44 209 -57 267 -13 58 -25 116 -28 130 -2
14 -11 57 -20 95 -9 39 -63 295 -122 570 -58 275 -126 595 -150 710 -25 116
-49 230 -54 255 -5 25 -23 108 -39 185 -17 77 -62 291 -101 475 -39 184 -85
398 -101 475 -16 77 -47 223 -69 325 -21 102 -48 227 -59 277 -12 51 -21 95
-21 98 0 10 21 4 121 -35z m278 -106 c58 -25 110 -50 114 -54 9 -8 16 -60 42
-320 9 -85 18 -171 20 -190 2 -19 7 -62 10 -95 3 -33 10 -98 15 -145 5 -47 17
-152 25 -235 9 -82 17 -166 20 -185 2 -19 7 -62 10 -95 3 -33 8 -80 11 -105 2
-25 6 -65 9 -90 5 -52 33 -316 40 -375 2 -22 7 -67 10 -100 3 -33 8 -76 10
-95 2 -19 7 -60 10 -90 12 -123 15 -157 20 -195 3 -22 10 -87 15 -145 6 -58
13 -121 15 -140 2 -19 7 -64 10 -100 6 -62 30 -291 40 -375 3 -22 9 -87 15
-145 6 -58 13 -121 15 -140 2 -19 7 -66 10 -105 3 -38 8 -81 10 -95 3 -14 9
-74 15 -135 6 -60 13 -129 15 -152 12 -105 14 -132 19 -193 6 -64 -25 105 -63
350 -11 69 -22 139 -25 155 -8 46 -35 215 -41 260 -3 22 -10 63 -15 90 -5 28
-12 68 -15 90 -8 55 -21 139 -55 355 -16 102 -37 230 -45 285 -9 55 -27 168
-40 250 -20 124 -52 328 -70 445 -2 14 -20 124 -39 245 -19 121 -37 238 -41
260 -3 22 -14 94 -25 160 -21 128 -135 843 -144 910 -10 64 -36 227 -42 258
-3 15 -2 27 1 27 4 0 55 -21 114 -46z m-6496 -161 c-63 -98 -145 -223 -180
-278 -35 -55 -148 -229 -251 -388 -268 -412 -398 -611 -872 -1342 -232 -357
-424 -651 -428 -653 -7 -2 -78 145 -84 173 -2 7 108 165 243 351 135 187 457
629 714 984 879 1210 966 1330 970 1330 3 0 -48 -80 -112 -177z m6900 -31 c6
-8 18 -205 32 -487 3 -60 7 -148 10 -195 3 -47 7 -134 10 -195 3 -60 7 -144
10 -185 2 -41 7 -129 10 -195 3 -66 7 -156 10 -200 7 -124 15 -271 20 -375 3
-52 7 -135 10 -185 13 -245 24 -452 30 -580 3 -60 8 -146 10 -190 3 -44 7
-132 10 -195 3 -63 7 -146 10 -185 2 -38 7 -124 10 -190 3 -66 8 -151 10 -190
2 -38 7 -126 10 -195 3 -69 8 -152 10 -185 10 -140 17 -330 12 -325 -3 3 -8
40 -12 82 -3 43 -8 88 -10 100 -2 13 -6 55 -10 93 -4 39 -8 84 -10 100 -3 17
-11 98 -20 180 -8 83 -17 170 -20 195 -3 25 -14 131 -25 235 -15 151 -72 688
-95 900 -6 59 -25 243 -31 300 -2 28 -7 66 -9 85 -3 19 -14 127 -25 240 -11
113 -22 221 -25 240 -4 36 -31 287 -40 375 -2 28 -20 201 -40 385 -19 184 -37
360 -40 390 -3 30 -7 69 -10 85 -2 17 -6 62 -10 100 -4 39 -8 81 -10 94 -2 12
-7 60 -11 105 -3 44 -9 85 -11 89 -3 4 49 -19 116 -53 66 -33 122 -64 124 -68z
m-6897 -54 c-13 -24 -82 -142 -152 -263 -70 -121 -177 -308 -239 -415 -61
-107 -204 -355 -317 -550 -205 -355 -343 -594 -380 -660 -34 -59 -385 -667
-461 -797 l-71 -122 -44 85 c-24 48 -42 93 -39 103 2 9 327 513 722 1121 844
1298 874 1345 944 1455 55 89 80 116 37 43z m7049 -18 c17 -9 55 -31 86 -49
l57 -32 0 -2215 c0 -1219 -1 -2214 -3 -2212 -4 4 -19 231 -30 473 -8 162 -15
305 -20 380 -2 39 -7 131 -10 205 -3 74 -8 158 -10 185 -2 28 -6 111 -10 185
-3 74 -8 162 -10 195 -2 33 -7 119 -10 190 -3 72 -8 157 -10 190 -2 33 -7 119
-10 190 -3 72 -8 159 -10 195 -2 36 -7 117 -10 180 -3 63 -7 153 -10 200 -2
47 -7 132 -10 190 -3 58 -8 139 -10 180 -2 41 -7 129 -10 195 -11 233 -23 468
-30 575 -2 41 -7 127 -10 190 -6 128 -13 251 -20 384 l-6 88 38 -22 c21 -13
52 -30 68 -40z m-9341 -1227 c4 -89 9 -172 11 -185 2 -12 6 -97 10 -188 3 -91
8 -187 10 -215 2 -27 7 -111 10 -185 4 -74 8 -157 10 -185 2 -27 7 -115 10
-195 3 -80 8 -165 10 -190 2 -25 7 -110 10 -190 3 -80 8 -167 10 -195 2 -27 7
-111 10 -185 3 -74 8 -162 10 -195 2 -33 7 -116 10 -185 3 -69 8 -161 10 -205
9 -179 16 -304 20 -380 8 -134 15 -265 20 -380 7 -143 14 -271 20 -365 3 -41
7 -133 10 -205 3 -71 7 -161 10 -200 2 -38 7 -122 10 -185 3 -63 8 -151 11
-194 l6 -79 -24 15 c-12 8 -69 40 -125 72 l-101 57 0 2255 c0 1241 1 2254 3
2252 1 -1 6 -76 9 -165z m71 -328 c4 -49 8 -92 10 -95 2 -3 6 -43 10 -90 4
-47 9 -92 10 -100 2 -9 6 -47 9 -85 4 -39 8 -86 11 -105 2 -19 7 -62 10 -95 3
-33 7 -76 10 -95 2 -19 7 -62 10 -95 4 -33 8 -76 10 -95 4 -33 30 -278 40
-380 3 -25 7 -65 10 -90 2 -25 9 -92 15 -150 6 -58 13 -121 15 -140 5 -42 11
-100 25 -240 6 -58 13 -121 15 -140 2 -19 7 -64 10 -100 3 -36 7 -76 10 -90 2
-14 7 -56 10 -95 3 -38 8 -86 10 -105 3 -19 7 -57 10 -85 2 -27 11 -113 20
-190 8 -77 17 -165 20 -195 7 -72 34 -335 40 -380 3 -19 12 -105 20 -190 9
-85 18 -175 21 -200 2 -25 7 -67 9 -95 3 -27 8 -66 10 -85 2 -19 7 -64 11
-100 3 -36 7 -78 9 -95 2 -16 7 -59 10 -95 4 -36 10 -93 14 -127 4 -35 4 -63
-1 -63 -12 0 -227 110 -232 119 -2 3 -7 53 -10 111 -4 58 -9 139 -11 180 -3
41 -7 130 -10 197 -3 67 -7 159 -10 205 -14 258 -22 401 -30 563 -3 55 -7 136
-10 180 -3 44 -7 132 -10 195 -3 63 -7 151 -10 195 -2 44 -7 130 -10 190 -3
61 -8 146 -10 190 -2 44 -7 130 -10 190 -3 61 -7 153 -10 205 -6 108 -12 207
-20 365 -7 138 -13 263 -20 385 -2 52 -7 138 -10 190 -6 119 -14 271 -19 375
-14 254 -18 349 -13 345 2 -3 8 -45 12 -95z m129 -580 c41 -266 36 -235 75
-480 17 -104 42 -260 56 -345 25 -159 143 -905 150 -950 2 -14 17 -110 34
-215 36 -224 86 -540 136 -860 20 -126 49 -311 65 -410 16 -99 31 -198 34
-220 4 -23 8 -50 10 -60 6 -31 35 -216 40 -253 4 -28 2 -33 -12 -29 -23 7
-212 94 -219 100 -3 3 -7 21 -8 39 -2 18 -9 78 -15 133 -6 55 -13 123 -16 150
-3 28 -7 66 -9 85 -4 32 -7 59 -20 190 -13 132 -16 158 -20 190 -2 19 -7 62
-10 95 -3 33 -7 78 -10 100 -9 79 -19 178 -30 285 -2 25 -7 65 -9 90 -11 93
-16 137 -21 195 -3 33 -8 76 -10 95 -4 33 -8 71 -20 188 -10 98 -16 157 -20
192 -5 44 -12 106 -25 240 -6 58 -13 121 -15 140 -3 19 -12 105 -20 190 -9 85
-18 171 -20 190 -2 19 -9 85 -15 145 -6 61 -13 124 -15 140 -3 17 -7 62 -10
100 -3 39 -8 84 -10 100 -3 17 -9 77 -15 135 -10 100 -14 135 -25 233 -2 23
-9 92 -15 152 -6 61 -13 128 -15 150 -3 22 -7 65 -10 95 -5 53 -4 53 9 -15 8
-38 30 -173 50 -300z m33 83 c-3 -8 -6 -5 -6 6 -1 11 2 17 5 13 3 -3 4 -12 1
-19z m223 -1038 c72 -338 149 -698 170 -800 22 -102 84 -396 139 -655 55 -258
149 -704 210 -990 61 -285 109 -521 107 -523 -4 -3 -187 63 -217 79 -11 6 -21
39 -32 111 -9 57 -35 213 -56 348 -22 135 -42 263 -45 285 -4 22 -20 123 -36
225 -16 102 -47 302 -70 445 -22 143 -50 314 -60 380 -11 66 -22 138 -25 160
-3 22 -10 65 -15 95 -5 30 -12 71 -15 90 -3 19 -7 46 -10 60 -2 14 -6 41 -9
60 -6 39 -65 417 -96 605 -21 130 -36 227 -45 290 -4 22 -17 105 -30 185 -13
80 -33 208 -45 285 -12 77 -23 151 -26 165 -2 14 -6 48 -9 75 -5 54 18 -48
215 -975z m-91 680 c11 -41 42 -160 70 -263 28 -103 67 -250 87 -325 55 -207
56 -208 458 -1712 207 -773 379 -1412 382 -1421 4 -14 -16 -11 -113 20 l-117
37 -57 264 c-31 146 -91 429 -133 630 -79 372 -126 592 -215 1010 -80 377
-117 550 -170 805 -28 132 -57 269 -65 305 -8 36 -27 121 -41 190 -57 269 -78
368 -96 448 -30 133 -24 141 10 12z m271 -715 c32 -99 113 -349 180 -555 67
-206 151 -465 187 -575 36 -110 90 -276 120 -370 30 -93 86 -264 123 -380 102
-314 303 -933 349 -1074 22 -69 38 -127 36 -129 -5 -5 -207 48 -217 57 -4 3
-59 202 -123 441 -64 239 -136 507 -160 595 -23 88 -66 246 -94 350 -27 105
-115 433 -195 730 -325 1214 -376 1405 -375 1412 1 8 66 -185 169 -502z m8260
290 c0 -5 -5 -3 -10 5 -5 8 -10 20 -10 25 0 6 5 3 10 -5 5 -8 10 -19 10 -25z
m-8303 -17 c-3 -8 -6 -5 -6 6 -1 11 2 17 5 13 3 -3 4 -12 1 -19z m8290 -197
c-2 -9 -47 -81 -99 -161 -52 -80 -175 -269 -273 -420 -213 -329 -162 -250
-785 -1210 -277 -426 -516 -796 -532 -822 -17 -27 -32 -48 -35 -48 -2 0 4 15
15 33 11 17 105 181 210 362 240 417 529 919 1025 1778 l391 677 44 -86 c24
-48 42 -94 39 -103z m-8217 19 c29 -74 63 -162 75 -195 33 -90 204 -537 215
-562 5 -13 75 -195 155 -405 81 -211 155 -403 165 -428 10 -25 95 -247 190
-495 94 -247 189 -495 211 -550 160 -412 226 -590 218 -593 -12 -5 -202 36
-210 45 -4 5 -75 220 -159 478 -83 259 -160 495 -170 525 -10 30 -71 217 -135
415 -128 397 -205 634 -318 980 -42 127 -125 383 -186 570 -60 187 -112 349
-116 360 -19 60 19 -25 65 -145z m515 -1050 c246 -553 568 -1277 716 -1609
148 -332 268 -606 265 -608 -2 -2 -50 4 -107 14 l-103 18 -57 145 c-31 80
-170 442 -309 805 -139 363 -388 1011 -552 1440 -165 429 -303 787 -306 795
-28 78 69 -137 453 -1000z m7842 988 c-3 -8 -6 -5 -6 6 -1 11 2 17 5 13 3 -3
4 -12 1 -19z m-64 -80 c19 -46 37 -88 39 -94 2 -7 -72 -115 -163 -240 -91
-126 -412 -569 -714 -984 -301 -415 -564 -777 -585 -805 -20 -27 -133 -183
-250 -345 -117 -162 -219 -302 -227 -310 -12 -13 382 599 690 1070 52 80 246
379 432 665 626 965 730 1125 736 1125 4 0 23 -37 42 -82z m174 -150 c-3 -8
-6 -5 -6 6 -1 11 2 17 5 13 3 -3 4 -12 1 -19z m-8145 -178 c53 -102 187 -365
298 -585 112 -220 237 -467 280 -550 43 -82 162 -316 265 -520 103 -203 216
-424 250 -490 161 -309 337 -666 332 -671 -7 -7 -190 15 -199 24 -4 4 -293
651 -643 1437 -350 787 -648 1454 -661 1484 -22 49 -29 71 -20 60 2 -2 46 -87
98 -189z m8078 88 c19 -51 36 -95 38 -99 2 -4 -66 -92 -150 -195 -85 -104
-219 -270 -299 -369 -80 -99 -235 -291 -345 -426 -109 -135 -213 -264 -230
-285 -18 -21 -187 -230 -376 -464 -189 -234 -402 -497 -473 -585 -211 -262
-288 -355 -291 -355 -2 0 56 81 129 181 73 100 168 231 212 293 45 61 337 464
651 896 313 432 687 946 830 1142 142 197 261 358 264 358 3 0 21 -41 40 -92z
m-8036 -64 c3 -8 2 -12 -4 -9 -6 3 -10 10 -10 16 0 14 7 11 14 -7z m68 -121
c24 -43 121 -211 215 -373 93 -162 315 -547 493 -855 177 -308 353 -612 390
-675 80 -137 408 -708 440 -765 12 -22 27 -46 33 -53 8 -10 -10 -11 -94 -6
-57 3 -105 7 -105 8 -3 3 -214 417 -374 731 -95 187 -225 444 -290 570 -306
600 -391 766 -569 1118 -106 207 -190 377 -188 377 3 0 25 -35 49 -77z m8067
-75 c18 -54 29 -103 25 -110 -4 -7 -29 -35 -54 -63 -26 -27 -93 -102 -150
-165 -56 -63 -119 -133 -139 -155 -20 -22 -178 -197 -351 -390 -173 -192 -319
-355 -325 -361 -5 -6 -44 -49 -85 -94 -41 -46 -79 -88 -85 -94 -5 -6 -44 -49
-85 -96 -41 -47 -78 -87 -81 -90 -3 -3 -50 -54 -104 -115 -79 -89 -195 -218
-260 -289 -5 -6 -48 -54 -95 -106 -47 -52 -102 -113 -122 -135 -20 -22 -45
-50 -56 -63 -20 -23 -134 -149 -232 -257 -30 -33 -72 -80 -93 -104 -21 -23
-40 -41 -42 -39 -2 2 11 20 28 40 18 20 54 65 82 100 27 34 54 68 60 74 11 13
75 92 337 415 604 747 961 1188 1253 1549 182 224 375 464 430 532 55 69 103
123 106 119 4 -3 21 -50 38 -103z m85 -258 c16 -61 27 -113 25 -115 -46 -49
-2594 -2597 -2602 -2602 -6 -3 95 110 223 253 129 142 270 299 314 349 45 49
106 117 136 150 30 33 91 101 135 150 44 48 85 93 90 99 6 6 44 49 85 96 41
47 82 92 90 100 8 8 51 56 94 105 44 50 85 95 90 100 6 6 29 31 51 55 38 44
149 166 265 295 60 66 196 218 220 245 27 31 155 173 180 200 14 15 54 60 90
100 36 40 76 85 90 100 23 25 306 339 360 401 14 16 27 28 30 29 3 0 18 -50
34 -110z m75 -279 c12 -57 21 -107 21 -111 0 -4 -84 -84 -187 -176 -104 -93
-193 -173 -199 -179 -6 -5 -48 -44 -94 -85 -46 -41 -88 -80 -94 -85 -20 -18
-404 -365 -966 -870 -305 -275 -573 -516 -595 -536 -22 -21 -49 -46 -61 -56
-22 -19 -170 -152 -213 -192 -14 -12 -59 -53 -100 -90 -41 -36 -79 -71 -85
-76 -6 -6 -56 -50 -111 -99 -55 -49 -102 -92 -105 -95 -3 -3 -23 -22 -45 -41
-22 -19 599 605 1380 1387 781 783 1423 1419 1426 1415 4 -4 17 -54 28 -111z
m54 -236 c3 -22 9 -60 12 -85 3 -25 8 -55 11 -67 3 -18 -54 -68 -354 -311
-415 -336 -659 -534 -827 -671 -66 -53 -264 -214 -440 -356 -176 -143 -365
-296 -420 -340 -402 -326 -656 -532 -815 -659 -102 -82 -198 -160 -215 -174
-60 -51 63 66 160 153 55 49 102 91 105 94 3 3 68 62 145 131 77 69 145 129
151 135 6 5 46 42 89 80 43 39 83 75 89 80 13 13 616 557 730 659 44 39 84 76
90 81 6 6 79 71 161 145 83 74 155 139 161 145 22 21 178 161 198 178 12 10
39 35 61 55 22 20 83 75 135 122 52 47 100 90 106 95 30 27 179 162 194 175 9
8 55 49 101 91 387 351 360 333 372 244z m104 -112 c-3 -10 -5 -4 -5 12 0 17
2 24 5 18 2 -7 2 -21 0 -30z m-62 -125 c2 -7 6 -40 9 -73 3 -33 8 -85 12 -115
l5 -55 -1616 -1175 c-1736 -1262 -1735 -1261 -1735 -1256 0 2 28 26 63 54 34
27 103 82 152 123 50 40 115 93 145 117 30 25 73 59 95 77 53 43 697 566 1273
1032 56 46 148 120 205 166 56 46 377 305 712 576 336 272 621 504 635 517 28
27 39 30 45 12z m45 -403 c1 -44 3 -97 4 -118 l1 -39 -230 -149 c-126 -83
-284 -185 -350 -228 -66 -43 -707 -460 -1425 -926 -718 -466 -1361 -885 -1430
-930 -132 -85 -168 -107 -135 -80 18 15 427 313 824 601 249 181 586 426 1332
969 371 270 685 498 699 507 14 9 176 127 360 262 267 194 336 241 341 228 4
-10 7 -53 9 -97z m18 -343 l1 -139 -327 -189 c-179 -104 -336 -194 -347 -200
-11 -6 -117 -67 -235 -136 -180 -104 -1614 -933 -2285 -1320 -270 -156 -388
-225 -480 -278 -268 -157 -230 -128 215 160 206 134 420 273 475 308 55 36
249 162 430 280 182 118 389 252 460 299 384 250 876 569 1005 653 41 27 300
195 575 374 275 179 503 325 506 326 4 0 7 -62 7 -138z m-7753 -1082 c434
-221 740 -378 1020 -520 154 -78 375 -191 490 -250 116 -59 363 -185 550 -280
187 -95 385 -196 440 -225 55 -29 245 -126 423 -216 177 -90 322 -166 322
-169 -1 -3 -54 -36 -120 -73 l-120 -68 -162 94 c-90 52 -206 119 -258 149 -52
30 -372 215 -710 410 -338 196 -631 365 -650 376 -184 104 -2049 1183 -2060
1192 -15 11 399 -198 835 -420z m-540 322 c-3 -3 -11 0 -18 7 -9 10 -8 11 6 5
10 -3 15 -9 12 -12z m97 -36 c40 -19 422 -190 848 -380 426 -189 1095 -487
1485 -661 391 -174 914 -407 1163 -518 248 -110 452 -204 452 -207 0 -3 -50
-37 -111 -77 l-111 -72 -192 98 c-105 54 -312 160 -461 236 -148 76 -369 188
-490 250 -121 62 -350 179 -510 260 -281 143 -555 283 -990 505 -115 59 -349
178 -520 265 -431 220 -639 326 -644 331 -11 11 14 1 81 -30z m5648 20 c0 -2
-8 -10 -17 -17 -16 -13 -17 -12 -4 4 13 16 21 21 21 13z m-5430 -66 c8 -5 11
-10 5 -10 -5 0 -17 5 -25 10 -8 5 -10 10 -5 10 6 0 17 -5 25 -10z m420 -161
c201 -78 392 -151 425 -164 33 -13 285 -110 560 -215 275 -106 705 -271 955
-367 250 -96 707 -272 1015 -390 308 -118 571 -219 584 -224 23 -9 18 -14 -82
-88 l-107 -79 -313 140 c-171 76 -325 145 -342 152 -16 8 -196 88 -400 179
-423 188 -1902 847 -2260 1007 -132 59 -267 119 -300 134 -225 99 -172 82 265
-85z m-10 60 c92 -29 675 -219 1105 -359 116 -38 392 -128 615 -200 223 -73
491 -160 595 -194 105 -34 481 -156 837 -271 l647 -210 -22 -20 c-12 -11 -56
-48 -98 -82 l-75 -61 -560 214 c-307 118 -568 218 -579 223 -11 5 -279 108
-595 229 -316 121 -829 318 -1140 438 -311 119 -623 239 -695 266 -116 44
-148 58 -134 58 2 0 47 -14 99 -31z m1507 5 c-3 -3 -12 -4 -19 -1 -8 3 -5 6 6
6 11 1 17 -2 13 -5z m86 -1 c-7 -2 -21 -2 -30 0 -10 3 -4 5 12 5 17 0 24 -2
18 -5z m3214 -17 c-8 -12 -33 -51 -56 -88 -37 -58 -45 -66 -69 -63 -15 2 -101
6 -192 10 -91 3 -176 8 -190 10 -14 2 -95 7 -180 11 -85 3 -171 7 -190 9 -19
2 -109 6 -200 10 -91 3 -172 8 -180 10 -8 2 -89 7 -180 10 -91 4 -181 8 -200
10 -19 2 -109 6 -200 10 -91 3 -176 8 -190 10 -14 2 -92 7 -175 10 -82 3 -172
8 -200 10 -27 2 -115 7 -195 10 -80 3 -161 8 -180 10 -19 2 -107 7 -195 10
-147 6 -215 12 -222 19 -2 1 719 3 1602 3 l1605 0 -13 -21z m-4569 -12 c15 -4
101 -27 192 -51 91 -25 212 -57 270 -73 188 -49 622 -166 1140 -305 91 -24
260 -70 375 -101 116 -30 307 -82 425 -114 118 -31 303 -81 410 -110 107 -28
276 -73 375 -100 99 -27 268 -72 375 -100 107 -29 198 -54 202 -57 4 -2 -33
-40 -82 -85 -61 -54 -96 -79 -108 -75 -9 2 -183 59 -387 125 -203 66 -469 153
-590 192 -295 96 -1866 607 -2080 677 -199 65 -496 160 -542 175 -18 5 -33 12
-33 15 0 3 7 2 16 -1 9 -3 28 -9 42 -12z m1387 -19 c44 -2 130 -7 190 -10 61
-3 153 -8 205 -10 147 -8 245 -14 365 -20 61 -3 146 -8 190 -10 44 -2 132 -7
195 -10 63 -3 151 -8 195 -10 44 -3 130 -7 190 -10 103 -5 146 -7 373 -20 221
-12 312 -17 383 -20 172 -8 317 -16 374 -20 33 -2 123 -7 200 -11 124 -5 172
-8 198 -13 8 -1 -99 -150 -118 -163 -5 -5 -21 -6 -35 -3 -14 2 -52 7 -85 10
-33 3 -76 7 -95 10 -19 2 -62 7 -95 10 -33 3 -100 10 -150 16 -49 5 -112 12
-140 14 -54 6 -112 12 -190 20 -27 3 -72 8 -100 11 -27 2 -70 7 -95 10 -25 2
-65 7 -90 9 -42 4 -196 20 -285 30 -129 14 -237 25 -285 30 -30 3 -71 7 -90
10 -19 2 -62 7 -95 10 -33 3 -80 8 -105 11 -25 2 -65 7 -90 9 -25 3 -65 7 -90
10 -25 3 -135 14 -245 25 -110 12 -218 23 -240 25 -179 20 -228 25 -285 30
-36 3 -78 8 -95 10 -16 2 -82 9 -145 15 -63 7 -117 14 -120 17 -3 3 47 2 110
-1 63 -4 151 -9 195 -11z m-1128 -1 c-3 -3 -12 -4 -19 -1 -8 3 -5 6 6 6 11 1
17 -2 13 -5z m510 0 c-3 -3 -12 -4 -19 -1 -8 3 -5 6 6 6 11 1 17 -2 13 -5z
m3903 3 c0 -2 -12 -14 -27 -28 l-28 -24 24 28 c23 25 31 32 31 24z m-4175 -52
c116 -25 273 -59 350 -75 77 -16 417 -88 755 -160 338 -72 858 -183 1155 -246
297 -63 581 -123 630 -134 50 -11 198 -42 330 -71 132 -28 241 -52 243 -54 2
-2 -33 -40 -78 -85 l-82 -83 -177 48 c-383 103 -1501 403 -2126 570 -913 245
-1220 328 -1224 331 -9 8 18 3 224 -41z m38 38 c-7 -2 -19 -2 -25 0 -7 3 -2 5
12 5 14 0 19 -2 13 -5z m422 -8 c30 -4 154 -17 190 -20 19 -2 109 -11 205 -21
25 -2 63 -6 85 -9 22 -3 63 -7 90 -10 28 -2 158 -16 290 -30 132 -14 263 -28
290 -30 28 -3 88 -10 135 -15 47 -5 110 -12 140 -15 30 -2 120 -12 200 -20 80
-9 163 -17 185 -20 22 -2 87 -9 145 -15 118 -12 128 -13 335 -35 83 -9 168
-18 190 -20 50 -6 225 -24 285 -30 45 -5 96 -10 180 -20 94 -10 139 -14 255
-25 66 -7 126 -14 133 -16 12 -4 -9 -35 -101 -147 -22 -26 -25 -27 -77 -17
-83 15 -114 20 -255 41 -136 21 -155 24 -245 39 -30 5 -73 12 -95 15 -47 6
-216 33 -260 41 -16 3 -84 14 -150 24 -138 21 -659 104 -975 154 -118 19 -233
37 -255 40 -22 4 -150 24 -285 45 -135 22 -263 42 -285 46 -22 3 -107 16 -190
30 -82 13 -168 26 -191 30 -22 3 -60 10 -85 15 -39 8 -37 9 21 4 36 -3 79 -7
95 -9z m-320 -5 c33 -6 103 -17 155 -25 52 -8 280 -44 505 -80 226 -36 469
-75 540 -86 72 -11 141 -22 155 -24 65 -11 410 -65 445 -70 22 -4 92 -15 155
-25 112 -19 329 -53 440 -70 30 -4 172 -27 315 -50 143 -22 276 -43 295 -46
19 -3 116 -19 215 -35 99 -16 203 -32 230 -35 28 -4 51 -8 53 -9 2 -2 -31 -41
-72 -88 l-76 -84 -62 13 c-35 8 -297 64 -583 124 -286 61 -666 142 -845 180
-659 140 -1284 273 -1605 341 -181 39 -334 72 -340 74 -20 7 22 5 80 -5z
m3295 -924 c0 -2 -8 -10 -17 -17 -16 -13 -17 -12 -4 4 13 16 21 21 21 13z"/>
</g>
</svg>
